<mxfile host="drawio-plugin" modified="2023-09-13T17:50:59.336Z" agent="5.0 (Windows NT 6.2; Win64; x64) AppleWebKit/537.36 (KHTML, like Gecko) Chrome/104.0.5112.102 Safari/537.36" etag="i8ockq_a66_nfxons9JF" version="20.5.3" type="embed"><diagram id="gF8JBWbUdA-aMpITFIqw" name="Страница 1"><mxGraphModel dx="402" dy="343" grid="1" gridSize="10" guides="1" tooltips="1" connect="1" arrows="1" fold="1" page="1" pageScale="1" pageWidth="827" pageHeight="1169" math="0" shadow="0"><root><mxCell id="0"/><mxCell id="1" parent="0"/><mxCell id="mnRGrm1mQDaMsHw58CA6-1" value="Loading Panel&lt;br&gt;(Панель загрузки)" style="shape=module;align=left;spacingLeft=20;align=center;verticalAlign=top;whiteSpace=wrap;html=1;" parent="1" vertex="1"><mxGeometry x="360" y="100" width="140" height="60" as="geometry"/></mxCell><mxCell id="mnRGrm1mQDaMsHw58CA6-2" value="Editing Block &lt;br&gt;(Блок редактирования)" style="shape=module;align=left;spacingLeft=20;align=center;verticalAlign=top;whiteSpace=wrap;html=1;" parent="1" vertex="1"><mxGeometry x="560" y="100" width="160" height="60" as="geometry"/></mxCell><mxCell id="mnRGrm1mQDaMsHw58CA6-3" value="Viewing Block &lt;br&gt;(Блок просмотра)" style="shape=module;align=left;spacingLeft=20;align=center;verticalAlign=top;whiteSpace=wrap;html=1;" parent="1" vertex="1"><mxGeometry x="780" y="100" width="140" height="60" as="geometry"/></mxCell><mxCell id="mnRGrm1mQDaMsHw58CA6-4" value="Load 3D Model (Загрузить 3D модель)" style="shape=module;align=left;spacingLeft=20;align=center;verticalAlign=top;whiteSpace=wrap;html=1;" parent="1" vertex="1"><mxGeometry x="950" y="260" width="160" height="60" as="geometry"/></mxCell><mxCell id="mnRGrm1mQDaMsHw58CA6-5" value="View 3D Model &lt;br&gt;(Рассмотреть 3D модель)" style="shape=module;align=left;spacingLeft=20;align=center;verticalAlign=top;whiteSpace=wrap;html=1;" parent="1" vertex="1"><mxGeometry x="1150" y="520" width="160" height="60" as="geometry"/></mxCell><mxCell id="mnRGrm1mQDaMsHw58CA6-6" value="Create New 3D Model (Создать новую 3D модель)" style="shape=module;align=left;spacingLeft=20;align=center;verticalAlign=top;whiteSpace=wrap;html=1;" parent="1" vertex="1"><mxGeometry x="770" y="520" width="160" height="60" as="geometry"/></mxCell><mxCell id="mnRGrm1mQDaMsHw58CA6-7" value="Edit Vertices &lt;br&gt;(Редактировать вершины)" style="shape=module;align=left;spacingLeft=20;align=center;verticalAlign=top;whiteSpace=wrap;html=1;" parent="1" vertex="1"><mxGeometry x="1140" y="260" width="160" height="60" as="geometry"/></mxCell><mxCell id="mnRGrm1mQDaMsHw58CA6-8" value="Edit Textures &lt;br&gt;(Редактировать текстуры)" style="shape=module;align=left;spacingLeft=20;align=center;verticalAlign=top;whiteSpace=wrap;html=1;" parent="1" vertex="1"><mxGeometry x="960" y="520" width="160" height="60" as="geometry"/></mxCell><mxCell id="mnRGrm1mQDaMsHw58CA6-9" value="Render &lt;br&gt;(Сделать рендер)" style="shape=module;align=left;spacingLeft=20;align=center;verticalAlign=top;whiteSpace=wrap;html=1;" parent="1" vertex="1"><mxGeometry x="290" y="510" width="160" height="60" as="geometry"/></mxCell><mxCell id="mnRGrm1mQDaMsHw58CA6-10" value="Save Render &lt;br&gt;(Сохранить рендер)" style="shape=module;align=left;spacingLeft=20;align=center;verticalAlign=top;whiteSpace=wrap;html=1;" parent="1" vertex="1"><mxGeometry x="290" y="620" width="160" height="60" as="geometry"/></mxCell><mxCell id="mnRGrm1mQDaMsHw58CA6-11" value="3D Model Files &lt;br&gt;(Файлы 3D моделей)" style="shape=module;align=left;spacingLeft=20;align=center;verticalAlign=top;whiteSpace=wrap;html=1;" parent="1" vertex="1"><mxGeometry x="500" y="820" width="160" height="60" as="geometry"/></mxCell><mxCell id="mnRGrm1mQDaMsHw58CA6-12" value="Renderings &lt;br&gt;(Рендеры)" style="shape=module;align=left;spacingLeft=20;align=center;verticalAlign=top;whiteSpace=wrap;html=1;" parent="1" vertex="1"><mxGeometry x="700" y="820" width="160" height="60" as="geometry"/></mxCell><mxCell id="mnRGrm1mQDaMsHw58CA6-13" value="Animation Data &lt;br&gt;(Анимация)" style="shape=module;align=left;spacingLeft=20;align=center;verticalAlign=top;whiteSpace=wrap;html=1;" parent="1" vertex="1"><mxGeometry x="900" y="820" width="160" height="60" as="geometry"/></mxCell><mxCell id="mnRGrm1mQDaMsHw58CA6-14" value="Уровень пользовательского интерфейса" style="text;strokeColor=none;fillColor=none;spacingLeft=4;spacingRight=4;overflow=hidden;rotatable=0;points=[[0,0.5],[1,0.5]];portConstraint=eastwest;fontSize=12;whiteSpace=wrap;html=1;" parent="1" vertex="1"><mxGeometry x="1230" y="160" width="190" height="50" as="geometry"/></mxCell><mxCell id="mnRGrm1mQDaMsHw58CA6-15" value="Уровень бизнес-логики" style="text;strokeColor=none;fillColor=none;spacingLeft=4;spacingRight=4;overflow=hidden;rotatable=0;points=[[0,0.5],[1,0.5]];portConstraint=eastwest;fontSize=12;whiteSpace=wrap;html=1;" parent="1" vertex="1"><mxGeometry x="1250" y="660" width="190" height="50" as="geometry"/></mxCell><mxCell id="mnRGrm1mQDaMsHw58CA6-16" value="" style="endArrow=none;dashed=1;html=1;rounded=0;" parent="1" edge="1"><mxGeometry width="50" height="50" relative="1" as="geometry"><mxPoint x="260" y="220" as="sourcePoint"/><mxPoint x="1410" y="220" as="targetPoint"/></mxGeometry></mxCell><mxCell id="mnRGrm1mQDaMsHw58CA6-17" value="" style="endArrow=none;dashed=1;html=1;rounded=0;" parent="1" edge="1"><mxGeometry width="50" height="50" relative="1" as="geometry"><mxPoint x="270" y="720" as="sourcePoint"/><mxPoint x="1420" y="720" as="targetPoint"/></mxGeometry></mxCell><mxCell id="mnRGrm1mQDaMsHw58CA6-18" value="" style="endArrow=none;dashed=1;html=1;rounded=0;" parent="1" edge="1"><mxGeometry width="50" height="50" relative="1" as="geometry"><mxPoint x="270" y="960" as="sourcePoint"/><mxPoint x="1420" y="960" as="targetPoint"/></mxGeometry></mxCell><mxCell id="mnRGrm1mQDaMsHw58CA6-19" value="Уровень работы с данными" style="text;strokeColor=none;fillColor=none;spacingLeft=4;spacingRight=4;overflow=hidden;rotatable=0;points=[[0,0.5],[1,0.5]];portConstraint=eastwest;fontSize=12;whiteSpace=wrap;html=1;" parent="1" vertex="1"><mxGeometry x="1240" y="920" width="190" height="50" as="geometry"/></mxCell><mxCell id="mnRGrm1mQDaMsHw58CA6-20" value="Файловая система" style="text;strokeColor=none;fillColor=none;spacingLeft=4;spacingRight=4;overflow=hidden;rotatable=0;points=[[0,0.5],[1,0.5]];portConstraint=eastwest;fontSize=12;whiteSpace=wrap;html=1;" parent="1" vertex="1"><mxGeometry x="620" y="1030" width="190" height="50" as="geometry"/></mxCell><mxCell id="mnRGrm1mQDaMsHw58CA6-21" value="" style="rounded=0;orthogonalLoop=1;jettySize=auto;html=1;endArrow=halfCircle;endFill=0;endSize=6;strokeWidth=1;sketch=0;fontSize=12;curved=1;exitX=0.5;exitY=1;exitDx=0;exitDy=0;" parent="1" source="mnRGrm1mQDaMsHw58CA6-12" edge="1"><mxGeometry relative="1" as="geometry"><mxPoint x="815" y="805" as="sourcePoint"/><mxPoint x="780" y="1000" as="targetPoint"/></mxGeometry></mxCell><mxCell id="mnRGrm1mQDaMsHw58CA6-22" value="" style="ellipse;whiteSpace=wrap;html=1;align=center;aspect=fixed;fillColor=none;strokeColor=none;resizable=0;perimeter=centerPerimeter;rotatable=0;allowArrows=0;points=[];outlineConnect=1;" parent="1" vertex="1"><mxGeometry x="790" y="800" width="10" height="10" as="geometry"/></mxCell><mxCell id="mnRGrm1mQDaMsHw58CA6-23" value="" style="rounded=0;orthogonalLoop=1;jettySize=auto;html=1;endArrow=halfCircle;endFill=0;endSize=6;strokeWidth=1;sketch=0;fontSize=12;curved=1;exitX=0.5;exitY=1;exitDx=0;exitDy=0;" parent="1" edge="1"><mxGeometry relative="1" as="geometry"><mxPoint x="579.5" y="880" as="sourcePoint"/><mxPoint x="579.5" y="1000" as="targetPoint"/></mxGeometry></mxCell><mxCell id="mnRGrm1mQDaMsHw58CA6-24" value="" style="rounded=0;orthogonalLoop=1;jettySize=auto;html=1;endArrow=halfCircle;endFill=0;endSize=6;strokeWidth=1;sketch=0;fontSize=12;curved=1;exitX=0.5;exitY=1;exitDx=0;exitDy=0;" parent="1" edge="1"><mxGeometry relative="1" as="geometry"><mxPoint x="979.5" y="880" as="sourcePoint"/><mxPoint x="979.5" y="1000" as="targetPoint"/></mxGeometry></mxCell><mxCell id="mnRGrm1mQDaMsHw58CA6-25" value="" style="ellipse;whiteSpace=wrap;html=1;align=center;aspect=fixed;fillColor=none;strokeColor=none;resizable=0;perimeter=centerPerimeter;rotatable=0;allowArrows=0;points=[];outlineConnect=1;" parent="1" vertex="1"><mxGeometry x="640" y="330" width="10" height="10" as="geometry"/></mxCell><mxCell id="mnRGrm1mQDaMsHw58CA6-26" value="" style="rounded=0;orthogonalLoop=1;jettySize=auto;html=1;endArrow=halfCircle;endFill=0;endSize=6;strokeWidth=1;sketch=0;fontSize=12;curved=1;exitX=0.5;exitY=1;exitDx=0;exitDy=0;" parent="1" edge="1"><mxGeometry relative="1" as="geometry"><mxPoint x="370" y="680" as="sourcePoint"/><mxPoint x="370" y="1000" as="targetPoint"/></mxGeometry></mxCell><mxCell id="mnRGrm1mQDaMsHw58CA6-27" value="RenderController" style="shape=module;align=left;spacingLeft=20;align=center;verticalAlign=top;whiteSpace=wrap;html=1;" parent="1" vertex="1"><mxGeometry x="260" y="390" width="270" height="60" as="geometry"/></mxCell><mxCell id="mnRGrm1mQDaMsHw58CA6-28" value="" style="endArrow=classic;html=1;rounded=0;exitX=0.407;exitY=1.061;exitDx=0;exitDy=0;entryX=0.5;entryY=0;entryDx=0;entryDy=0;exitPerimeter=0;" parent="1" source="mnRGrm1mQDaMsHw58CA6-27" target="mnRGrm1mQDaMsHw58CA6-9" edge="1"><mxGeometry width="50" height="50" relative="1" as="geometry"><mxPoint x="510" y="460" as="sourcePoint"/><mxPoint x="560" y="410" as="targetPoint"/></mxGeometry></mxCell><mxCell id="mnRGrm1mQDaMsHw58CA6-29" value="" style="endArrow=classic;html=1;rounded=0;exitX=0.3;exitY=1.043;exitDx=0;exitDy=0;exitPerimeter=0;entryX=0.5;entryY=0;entryDx=0;entryDy=0;" parent="1" target="mnRGrm1mQDaMsHw58CA6-10" edge="1"><mxGeometry width="50" height="50" relative="1" as="geometry"><mxPoint x="370.47" y="570" as="sourcePoint"/><mxPoint x="370" y="610" as="targetPoint"/></mxGeometry></mxCell><mxCell id="mnRGrm1mQDaMsHw58CA6-30" value="3D ModelController" style="shape=module;align=left;spacingLeft=20;align=center;verticalAlign=top;whiteSpace=wrap;html=1;" parent="1" vertex="1"><mxGeometry x="650" y="390" width="580" height="60" as="geometry"/></mxCell><mxCell id="mnRGrm1mQDaMsHw58CA6-31" value="" style="ellipse;whiteSpace=wrap;html=1;align=center;aspect=fixed;fillColor=none;strokeColor=none;resizable=0;perimeter=centerPerimeter;rotatable=0;allowArrows=0;points=[];outlineConnect=1;" parent="1" vertex="1"><mxGeometry x="600" y="590" width="10" height="10" as="geometry"/></mxCell><mxCell id="mnRGrm1mQDaMsHw58CA6-32" value="" style="rounded=0;orthogonalLoop=1;jettySize=auto;html=1;endArrow=halfCircle;endFill=0;endSize=6;strokeWidth=1;sketch=0;exitX=0.344;exitY=1.03;exitDx=0;exitDy=0;exitPerimeter=0;" parent="1" source="mnRGrm1mQDaMsHw58CA6-30" target="mnRGrm1mQDaMsHw58CA6-34" edge="1"><mxGeometry relative="1" as="geometry"><mxPoint x="870" y="485" as="sourcePoint"/></mxGeometry></mxCell><mxCell id="mnRGrm1mQDaMsHw58CA6-33" value="" style="rounded=0;orthogonalLoop=1;jettySize=auto;html=1;endArrow=oval;endFill=0;sketch=0;sourcePerimeterSpacing=0;targetPerimeterSpacing=0;endSize=10;exitX=0.5;exitY=0;exitDx=0;exitDy=0;" parent="1" source="mnRGrm1mQDaMsHw58CA6-6" target="mnRGrm1mQDaMsHw58CA6-34" edge="1"><mxGeometry relative="1" as="geometry"><mxPoint x="830" y="485" as="sourcePoint"/></mxGeometry></mxCell><mxCell id="mnRGrm1mQDaMsHw58CA6-34" value="" style="ellipse;whiteSpace=wrap;html=1;align=center;aspect=fixed;fillColor=none;strokeColor=none;resizable=0;perimeter=centerPerimeter;rotatable=0;allowArrows=0;points=[];outlineConnect=1;" parent="1" vertex="1"><mxGeometry x="845" y="480" width="10" height="10" as="geometry"/></mxCell><mxCell id="mnRGrm1mQDaMsHw58CA6-35" value="" style="rounded=0;orthogonalLoop=1;jettySize=auto;html=1;endArrow=halfCircle;endFill=0;endSize=6;strokeWidth=1;sketch=0;" parent="1" edge="1"><mxGeometry relative="1" as="geometry"><mxPoint x="1039.79" y="390" as="sourcePoint"/><mxPoint x="1039.79" y="357" as="targetPoint"/></mxGeometry></mxCell><mxCell id="mnRGrm1mQDaMsHw58CA6-36" value="" style="rounded=0;orthogonalLoop=1;jettySize=auto;html=1;endArrow=oval;endFill=0;sketch=0;sourcePerimeterSpacing=0;targetPerimeterSpacing=0;endSize=10;" parent="1" source="mnRGrm1mQDaMsHw58CA6-37" edge="1"><mxGeometry relative="1" as="geometry"><mxPoint x="1040" y="355" as="targetPoint"/></mxGeometry></mxCell><mxCell id="mnRGrm1mQDaMsHw58CA6-37" value="" style="ellipse;whiteSpace=wrap;html=1;align=center;aspect=fixed;fillColor=none;strokeColor=none;resizable=0;perimeter=centerPerimeter;rotatable=0;allowArrows=0;points=[];outlineConnect=1;" parent="1" vertex="1"><mxGeometry x="1035" y="315" width="10" height="10" as="geometry"/></mxCell><mxCell id="mnRGrm1mQDaMsHw58CA6-38" value="" style="rounded=0;orthogonalLoop=1;jettySize=auto;html=1;endArrow=halfCircle;endFill=0;endSize=6;strokeWidth=1;sketch=0;exitX=0.344;exitY=1.03;exitDx=0;exitDy=0;exitPerimeter=0;" parent="1" target="mnRGrm1mQDaMsHw58CA6-40" edge="1"><mxGeometry relative="1" as="geometry"><mxPoint x="1050" y="451" as="sourcePoint"/></mxGeometry></mxCell><mxCell id="mnRGrm1mQDaMsHw58CA6-39" value="" style="rounded=0;orthogonalLoop=1;jettySize=auto;html=1;endArrow=oval;endFill=0;sketch=0;sourcePerimeterSpacing=0;targetPerimeterSpacing=0;endSize=10;exitX=0.5;exitY=0;exitDx=0;exitDy=0;" parent="1" target="mnRGrm1mQDaMsHw58CA6-40" edge="1"><mxGeometry relative="1" as="geometry"><mxPoint x="1050" y="519" as="sourcePoint"/></mxGeometry></mxCell><mxCell id="mnRGrm1mQDaMsHw58CA6-40" value="" style="ellipse;whiteSpace=wrap;html=1;align=center;aspect=fixed;fillColor=none;strokeColor=none;resizable=0;perimeter=centerPerimeter;rotatable=0;allowArrows=0;points=[];outlineConnect=1;" parent="1" vertex="1"><mxGeometry x="1045" y="479" width="10" height="10" as="geometry"/></mxCell><mxCell id="mnRGrm1mQDaMsHw58CA6-41" value="" style="rounded=0;orthogonalLoop=1;jettySize=auto;html=1;endArrow=halfCircle;endFill=0;endSize=6;strokeWidth=1;sketch=0;exitX=0.344;exitY=1.03;exitDx=0;exitDy=0;exitPerimeter=0;" parent="1" target="mnRGrm1mQDaMsHw58CA6-43" edge="1"><mxGeometry relative="1" as="geometry"><mxPoint x="1205" y="450" as="sourcePoint"/></mxGeometry></mxCell><mxCell id="mnRGrm1mQDaMsHw58CA6-42" value="" style="rounded=0;orthogonalLoop=1;jettySize=auto;html=1;endArrow=oval;endFill=0;sketch=0;sourcePerimeterSpacing=0;targetPerimeterSpacing=0;endSize=10;exitX=0.5;exitY=0;exitDx=0;exitDy=0;" parent="1" target="mnRGrm1mQDaMsHw58CA6-43" edge="1"><mxGeometry relative="1" as="geometry"><mxPoint x="1205" y="518" as="sourcePoint"/></mxGeometry></mxCell><mxCell id="mnRGrm1mQDaMsHw58CA6-43" value="" style="ellipse;whiteSpace=wrap;html=1;align=center;aspect=fixed;fillColor=none;strokeColor=none;resizable=0;perimeter=centerPerimeter;rotatable=0;allowArrows=0;points=[];outlineConnect=1;" parent="1" vertex="1"><mxGeometry x="1200" y="478" width="10" height="10" as="geometry"/></mxCell><mxCell id="mnRGrm1mQDaMsHw58CA6-44" value="" style="rounded=0;orthogonalLoop=1;jettySize=auto;html=1;endArrow=halfCircle;endFill=0;endSize=6;strokeWidth=1;sketch=0;" parent="1" edge="1"><mxGeometry relative="1" as="geometry"><mxPoint x="1204.79" y="390" as="sourcePoint"/><mxPoint x="1204.79" y="357" as="targetPoint"/></mxGeometry></mxCell><mxCell id="mnRGrm1mQDaMsHw58CA6-45" value="" style="rounded=0;orthogonalLoop=1;jettySize=auto;html=1;endArrow=oval;endFill=0;sketch=0;sourcePerimeterSpacing=0;targetPerimeterSpacing=0;endSize=10;" parent="1" source="mnRGrm1mQDaMsHw58CA6-46" edge="1"><mxGeometry relative="1" as="geometry"><mxPoint x="1205" y="355" as="targetPoint"/></mxGeometry></mxCell><mxCell id="mnRGrm1mQDaMsHw58CA6-46" value="" style="ellipse;whiteSpace=wrap;html=1;align=center;aspect=fixed;fillColor=none;strokeColor=none;resizable=0;perimeter=centerPerimeter;rotatable=0;allowArrows=0;points=[];outlineConnect=1;" parent="1" vertex="1"><mxGeometry x="1200" y="315" width="10" height="10" as="geometry"/></mxCell><mxCell id="mnRGrm1mQDaMsHw58CA6-47" value="FileSystemController" style="shape=module;align=left;spacingLeft=20;align=center;verticalAlign=top;whiteSpace=wrap;html=1;" parent="1" vertex="1"><mxGeometry x="520" y="620" width="580" height="60" as="geometry"/></mxCell><mxCell id="mnRGrm1mQDaMsHw58CA6-48" value="" style="rounded=0;orthogonalLoop=1;jettySize=auto;html=1;endArrow=halfCircle;endFill=0;endSize=6;strokeWidth=1;sketch=0;exitX=0.344;exitY=1.03;exitDx=0;exitDy=0;exitPerimeter=0;" parent="1" target="mnRGrm1mQDaMsHw58CA6-50" edge="1"><mxGeometry relative="1" as="geometry"><mxPoint x="580" y="680" as="sourcePoint"/></mxGeometry></mxCell><mxCell id="mnRGrm1mQDaMsHw58CA6-49" value="" style="rounded=0;orthogonalLoop=1;jettySize=auto;html=1;endArrow=oval;endFill=0;sketch=0;sourcePerimeterSpacing=0;targetPerimeterSpacing=0;endSize=10;exitX=0.5;exitY=0;exitDx=0;exitDy=0;" parent="1" source="mnRGrm1mQDaMsHw58CA6-11" target="mnRGrm1mQDaMsHw58CA6-50" edge="1"><mxGeometry relative="1" as="geometry"><mxPoint x="580" y="748" as="sourcePoint"/></mxGeometry></mxCell><mxCell id="mnRGrm1mQDaMsHw58CA6-50" value="" style="ellipse;whiteSpace=wrap;html=1;align=center;aspect=fixed;fillColor=none;strokeColor=none;resizable=0;perimeter=centerPerimeter;rotatable=0;allowArrows=0;points=[];outlineConnect=1;" parent="1" vertex="1"><mxGeometry x="575" y="740" width="10" height="10" as="geometry"/></mxCell><mxCell id="mnRGrm1mQDaMsHw58CA6-51" value="" style="rounded=0;orthogonalLoop=1;jettySize=auto;html=1;endArrow=halfCircle;endFill=0;endSize=6;strokeWidth=1;sketch=0;exitX=0.344;exitY=1.03;exitDx=0;exitDy=0;exitPerimeter=0;" parent="1" target="mnRGrm1mQDaMsHw58CA6-53" edge="1"><mxGeometry relative="1" as="geometry"><mxPoint x="780" y="680" as="sourcePoint"/></mxGeometry></mxCell><mxCell id="mnRGrm1mQDaMsHw58CA6-52" value="" style="rounded=0;orthogonalLoop=1;jettySize=auto;html=1;endArrow=oval;endFill=0;sketch=0;sourcePerimeterSpacing=0;targetPerimeterSpacing=0;endSize=10;exitX=0.5;exitY=0;exitDx=0;exitDy=0;" parent="1" target="mnRGrm1mQDaMsHw58CA6-53" edge="1"><mxGeometry relative="1" as="geometry"><mxPoint x="780" y="820" as="sourcePoint"/></mxGeometry></mxCell><mxCell id="mnRGrm1mQDaMsHw58CA6-53" value="" style="ellipse;whiteSpace=wrap;html=1;align=center;aspect=fixed;fillColor=none;strokeColor=none;resizable=0;perimeter=centerPerimeter;rotatable=0;allowArrows=0;points=[];outlineConnect=1;" parent="1" vertex="1"><mxGeometry x="775" y="740" width="10" height="10" as="geometry"/></mxCell><mxCell id="mnRGrm1mQDaMsHw58CA6-54" value="" style="rounded=0;orthogonalLoop=1;jettySize=auto;html=1;endArrow=halfCircle;endFill=0;endSize=6;strokeWidth=1;sketch=0;exitX=0.344;exitY=1.03;exitDx=0;exitDy=0;exitPerimeter=0;" parent="1" target="mnRGrm1mQDaMsHw58CA6-56" edge="1"><mxGeometry relative="1" as="geometry"><mxPoint x="980" y="680" as="sourcePoint"/></mxGeometry></mxCell><mxCell id="mnRGrm1mQDaMsHw58CA6-55" value="" style="rounded=0;orthogonalLoop=1;jettySize=auto;html=1;endArrow=oval;endFill=0;sketch=0;sourcePerimeterSpacing=0;targetPerimeterSpacing=0;endSize=10;exitX=0.5;exitY=0;exitDx=0;exitDy=0;" parent="1" target="mnRGrm1mQDaMsHw58CA6-56" edge="1"><mxGeometry relative="1" as="geometry"><mxPoint x="980" y="820" as="sourcePoint"/></mxGeometry></mxCell><mxCell id="mnRGrm1mQDaMsHw58CA6-56" value="" style="ellipse;whiteSpace=wrap;html=1;align=center;aspect=fixed;fillColor=none;strokeColor=none;resizable=0;perimeter=centerPerimeter;rotatable=0;allowArrows=0;points=[];outlineConnect=1;" parent="1" vertex="1"><mxGeometry x="975" y="740" width="10" height="10" as="geometry"/></mxCell><mxCell id="mnRGrm1mQDaMsHw58CA6-57" value="AppController" style="shape=module;align=left;spacingLeft=20;align=center;verticalAlign=top;whiteSpace=wrap;html=1;" parent="1" vertex="1"><mxGeometry x="330" y="270" width="580" height="60" as="geometry"/></mxCell><mxCell id="mnRGrm1mQDaMsHw58CA6-58" value="" style="endArrow=classic;html=1;rounded=0;exitX=0.407;exitY=1.061;exitDx=0;exitDy=0;entryX=0.5;entryY=0;entryDx=0;entryDy=0;exitPerimeter=0;" parent="1" edge="1"><mxGeometry width="50" height="50" relative="1" as="geometry"><mxPoint x="448.75" y="334" as="sourcePoint"/><mxPoint x="448.75" y="390" as="targetPoint"/></mxGeometry></mxCell><mxCell id="mnRGrm1mQDaMsHw58CA6-59" value="" style="endArrow=classic;html=1;rounded=0;exitX=0.407;exitY=1.061;exitDx=0;exitDy=0;entryX=0.5;entryY=0;entryDx=0;entryDy=0;exitPerimeter=0;" parent="1" edge="1"><mxGeometry width="50" height="50" relative="1" as="geometry"><mxPoint x="714.38" y="334" as="sourcePoint"/><mxPoint x="714.38" y="390" as="targetPoint"/></mxGeometry></mxCell><mxCell id="mnRGrm1mQDaMsHw58CA6-60" value="" style="endArrow=classic;html=1;rounded=0;exitX=0.407;exitY=1.061;exitDx=0;exitDy=0;entryX=0.331;entryY=-0.108;entryDx=0;entryDy=0;exitPerimeter=0;entryPerimeter=0;" parent="1" target="mnRGrm1mQDaMsHw58CA6-47" edge="1"><mxGeometry width="50" height="50" relative="1" as="geometry"><mxPoint x="714.37" y="450" as="sourcePoint"/><mxPoint x="714.37" y="506" as="targetPoint"/></mxGeometry></mxCell><mxCell id="mnRGrm1mQDaMsHw58CA6-61" value="" style="rounded=0;orthogonalLoop=1;jettySize=auto;html=1;endArrow=halfCircle;endFill=0;endSize=6;strokeWidth=1;sketch=0;" parent="1" edge="1"><mxGeometry relative="1" as="geometry"><mxPoint x="429.78999999999996" y="270" as="sourcePoint"/><mxPoint x="430" y="200" as="targetPoint"/></mxGeometry></mxCell><mxCell id="mnRGrm1mQDaMsHw58CA6-62" value="" style="rounded=0;orthogonalLoop=1;jettySize=auto;html=1;endArrow=oval;endFill=0;sketch=0;sourcePerimeterSpacing=0;targetPerimeterSpacing=0;endSize=10;" parent="1" source="mnRGrm1mQDaMsHw58CA6-63" edge="1"><mxGeometry relative="1" as="geometry"><mxPoint x="430" y="200" as="targetPoint"/></mxGeometry></mxCell><mxCell id="mnRGrm1mQDaMsHw58CA6-63" value="" style="ellipse;whiteSpace=wrap;html=1;align=center;aspect=fixed;fillColor=none;strokeColor=none;resizable=0;perimeter=centerPerimeter;rotatable=0;allowArrows=0;points=[];outlineConnect=1;" parent="1" vertex="1"><mxGeometry x="425" y="155" width="10" height="10" as="geometry"/></mxCell><mxCell id="mnRGrm1mQDaMsHw58CA6-64" value="" style="rounded=0;orthogonalLoop=1;jettySize=auto;html=1;endArrow=halfCircle;endFill=0;endSize=6;strokeWidth=1;sketch=0;" parent="1" edge="1"><mxGeometry relative="1" as="geometry"><mxPoint x="644.79" y="270" as="sourcePoint"/><mxPoint x="645" y="200" as="targetPoint"/></mxGeometry></mxCell><mxCell id="mnRGrm1mQDaMsHw58CA6-65" value="" style="rounded=0;orthogonalLoop=1;jettySize=auto;html=1;endArrow=oval;endFill=0;sketch=0;sourcePerimeterSpacing=0;targetPerimeterSpacing=0;endSize=10;" parent="1" source="mnRGrm1mQDaMsHw58CA6-66" edge="1"><mxGeometry relative="1" as="geometry"><mxPoint x="645" y="200" as="targetPoint"/></mxGeometry></mxCell><mxCell id="mnRGrm1mQDaMsHw58CA6-66" value="" style="ellipse;whiteSpace=wrap;html=1;align=center;aspect=fixed;fillColor=none;strokeColor=none;resizable=0;perimeter=centerPerimeter;rotatable=0;allowArrows=0;points=[];outlineConnect=1;" parent="1" vertex="1"><mxGeometry x="640" y="155" width="10" height="10" as="geometry"/></mxCell><mxCell id="mnRGrm1mQDaMsHw58CA6-67" value="" style="rounded=0;orthogonalLoop=1;jettySize=auto;html=1;endArrow=halfCircle;endFill=0;endSize=6;strokeWidth=1;sketch=0;" parent="1" edge="1"><mxGeometry relative="1" as="geometry"><mxPoint x="854.79" y="270" as="sourcePoint"/><mxPoint x="855" y="200" as="targetPoint"/></mxGeometry></mxCell><mxCell id="mnRGrm1mQDaMsHw58CA6-68" value="" style="rounded=0;orthogonalLoop=1;jettySize=auto;html=1;endArrow=oval;endFill=0;sketch=0;sourcePerimeterSpacing=0;targetPerimeterSpacing=0;endSize=10;" parent="1" source="mnRGrm1mQDaMsHw58CA6-69" edge="1"><mxGeometry relative="1" as="geometry"><mxPoint x="855" y="200" as="targetPoint"/></mxGeometry></mxCell><mxCell id="mnRGrm1mQDaMsHw58CA6-69" value="" style="ellipse;whiteSpace=wrap;html=1;align=center;aspect=fixed;fillColor=none;strokeColor=none;resizable=0;perimeter=centerPerimeter;rotatable=0;allowArrows=0;points=[];outlineConnect=1;" parent="1" vertex="1"><mxGeometry x="850" y="155" width="10" height="10" as="geometry"/></mxCell></root></mxGraphModel></diagram></mxfile>